<svg width="55" height="41" viewBox="0 0 55 41" fill="none" xmlns="http://www.w3.org/2000/svg">
<path d="M46.2836 3.38953C42.8098 1.82298 39.0863 0.665102 35.1924 0.00669794C35.1578 4.10523e-05 35.1219 0.00433099 35.0897 0.0189745C35.0576 0.0336181 35.0308 0.0578907 35.0131 0.0884309C34.5363 0.926193 34.005 2.01824 33.6326 2.88097C29.5029 2.26397 25.3044 2.26397 21.1747 2.88097C20.76 1.92483 20.2923 0.992543 19.7738 0.0884309C19.7563 0.0575147 19.7297 0.032693 19.6976 0.0172781C19.6656 0.0018632 19.6296 -0.00341193 19.5945 0.00215701C15.7029 0.660561 11.9794 1.81844 8.50333 3.38726C8.47343 3.3998 8.44808 3.42119 8.43068 3.44856C1.36505 13.8355 -0.571643 23.9658 0.379674 33.969C0.382321 33.9935 0.389926 34.0172 0.402026 34.0387C0.414127 34.0601 0.430469 34.0789 0.450058 34.0939C4.57408 37.0962 9.17388 39.3834 14.0568 40.8595C14.0909 40.87 14.1273 40.87 14.1613 40.8594C14.1953 40.8489 14.2254 40.8284 14.2476 40.8005C15.2983 39.3953 16.2294 37.9045 17.0311 36.3438C17.0423 36.3224 17.0487 36.299 17.0499 36.2749C17.0512 36.2509 17.0473 36.2269 17.0385 36.2045C17.0296 36.1821 17.0161 36.1619 16.9988 36.1452C16.9815 36.1285 16.9607 36.1157 16.938 36.1077C15.4713 35.5554 14.0502 34.8888 12.6878 34.1143C12.6633 34.1003 12.6427 34.0805 12.6277 34.0566C12.6128 34.0327 12.604 34.0054 12.6022 33.9773C12.6004 33.9492 12.6057 33.921 12.6174 33.8954C12.6292 33.8698 12.6471 33.8475 12.6696 33.8305C12.9557 33.6194 13.2418 33.3991 13.5142 33.1789C13.5387 33.1591 13.5683 33.1465 13.5995 33.1425C13.6308 33.1385 13.6626 33.1432 13.6913 33.1562C22.6074 37.1611 32.2636 37.1611 41.0752 33.1562C41.104 33.1425 41.1361 33.1371 41.1678 33.1407C41.1995 33.1443 41.2296 33.1568 41.2545 33.1766C41.527 33.3991 41.8108 33.6194 42.0991 33.8305C42.1219 33.8471 42.1401 33.8691 42.1522 33.8945C42.1644 33.9199 42.17 33.9479 42.1686 33.9761C42.1673 34.0042 42.159 34.0315 42.1445 34.0556C42.13 34.0798 42.1097 34.0999 42.0855 34.1143C40.7278 34.8953 39.3156 35.556 37.833 36.1054C37.8102 36.1137 37.7895 36.1267 37.7721 36.1436C37.7548 36.1605 37.7413 36.181 37.7325 36.2035C37.7236 36.2261 37.7198 36.2503 37.721 36.2745C37.7223 36.2986 37.7287 36.3223 37.7399 36.3438C38.5572 37.9035 39.4927 39.3883 40.5212 40.7982C40.5426 40.8272 40.5724 40.8488 40.6065 40.8602C40.6406 40.8715 40.6774 40.8721 40.7119 40.8618C45.6032 39.3898 50.2105 37.1016 54.3391 34.0939C54.3593 34.0798 54.3762 34.0616 54.3887 34.0404C54.4012 34.0193 54.4091 33.9957 54.4118 33.9713C55.547 22.4061 52.5091 12.3574 46.354 3.4531C46.3389 3.42417 46.3139 3.40161 46.2836 3.38953ZM18.3639 27.8776C15.6802 27.8776 13.4665 25.4506 13.4665 22.4742C13.4665 19.4955 15.6371 17.0707 18.3639 17.0707C21.1111 17.0707 23.3044 19.5159 23.2612 22.4742C23.2612 25.4529 21.0907 27.8776 18.3639 27.8776ZM36.4707 27.8776C33.7848 27.8776 31.5733 25.4506 31.5733 22.4742C31.5733 19.4955 33.7416 17.0707 36.4707 17.0707C39.2179 17.0707 41.4112 19.5159 41.3681 22.4742C41.3681 25.4529 39.2202 27.8776 36.4707 27.8776Z" fill="white"/>
</svg>
