<svg width="51" height="41" viewBox="0 0 51 41" fill="none" xmlns="http://www.w3.org/2000/svg">
<path d="M50.6154 4.84783C48.7709 5.66705 46.7894 6.22057 44.7063 6.47077C46.8557 5.1817 48.4637 3.15285 49.2304 0.7628C47.211 1.96504 45.0009 2.81128 42.6961 3.26474C41.1463 1.60608 39.0934 0.506686 36.8562 0.137258C34.6191 -0.232171 32.3229 0.149031 30.324 1.22168C28.3252 2.29433 26.7356 3.99841 25.802 6.06936C24.8684 8.1403 24.6431 10.4622 25.1611 12.6747C21.0693 12.4688 17.0664 11.4028 13.4123 9.54595C9.75816 7.6891 6.53438 5.08288 3.9502 1.89642C3.0666 3.42416 2.55853 5.19544 2.55853 7.08186C2.55754 8.78007 2.97478 10.4523 3.77321 11.9501C4.57165 13.4479 5.7266 14.725 7.13558 15.6682C5.50153 15.616 3.90353 15.1735 2.47458 14.3773V14.5102C2.47442 16.892 3.29641 19.2005 4.80107 21.044C6.30573 22.8875 8.4004 24.1525 10.7296 24.6242C9.21378 25.0354 7.62452 25.096 6.08189 24.8014C6.73906 26.8508 8.01918 28.6429 9.74302 29.9268C11.4669 31.2108 13.5481 31.9223 15.6955 31.9618C12.0503 34.83 7.54842 36.3858 2.91418 36.3789C2.09327 36.3791 1.27305 36.3311 0.457764 36.235C5.16179 39.2665 10.6376 40.8754 16.2301 40.8691C35.1612 40.8691 45.5104 25.1534 45.5104 11.5234C45.5104 11.0805 45.4994 10.6333 45.4795 10.1905C47.4925 8.73131 49.2302 6.92443 50.611 4.85447L50.6154 4.84783Z" fill="white"/>
</svg>
