<svg width="621" height="85" viewBox="0 0 621 85" fill="none" xmlns="http://www.w3.org/2000/svg">
<g filter="url(#filter0_f_2_286)">
<path d="M4.0218 62.1203H1.41059V64.7315H4.0218V62.1203ZM21.8379 62.1203V64.7315H24.4491V62.1203H21.8379ZM21.8379 37.7422L23.9447 36.1996L19.2267 29.7561V37.7422H21.8379ZM39.6879 62.1203L37.5811 63.6629L38.3635 64.7315H39.6879V62.1203ZM48.596 62.1203V64.7315H49.9203L50.7028 63.6629L48.596 62.1203ZM66.446 37.7422H69.0572V29.7561L64.3392 36.1996L66.446 37.7422ZM66.446 62.1203H63.8348V64.7315H66.446V62.1203ZM84.2621 62.1203V64.7315H86.8733V62.1203H84.2621ZM84.2621 16.4241H86.8733V13.8129H84.2621V16.4241ZM61.992 16.4241V13.8129H60.7184L59.9343 14.8166L61.992 16.4241ZM44.1419 39.2722L42.0828 40.8779L44.14 43.5162L46.1996 40.8798L44.1419 39.2722ZM26.3259 16.4241L28.3851 14.8185L27.601 13.8129H26.3259V16.4241ZM4.0218 16.4241V13.8129H1.41059V16.4241H4.0218ZM4.0218 64.7315H21.8379V59.5091H4.0218V64.7315ZM24.4491 62.1203V37.7422H19.2267V62.1203H24.4491ZM19.7311 39.2849L37.5811 63.6629L41.7947 60.5777L23.9447 36.1996L19.7311 39.2849ZM39.6879 64.7315H48.596V59.5091H39.6879V64.7315ZM50.7028 63.6629L68.5528 39.2849L64.3392 36.1996L46.4891 60.5777L50.7028 63.6629ZM63.8348 37.7422V62.1203H69.0572V37.7422H63.8348ZM66.446 64.7315H84.2621V59.5091H66.446V64.7315ZM86.8733 62.1203V16.4241H81.6509V62.1203H86.8733ZM84.2621 13.8129H61.992V19.0353H84.2621V13.8129ZM59.9343 14.8166L42.0842 37.6646L46.1996 40.8798L64.0497 18.0317L59.9343 14.8166ZM46.2011 37.6665L28.3851 14.8185L24.2667 18.0298L42.0828 40.8779L46.2011 37.6665ZM26.3259 13.8129H4.0218V19.0353H26.3259V13.8129ZM1.41059 16.4241V62.1203H6.63301V16.4241H1.41059ZM96.0588 62.1883H93.4476V64.7995H96.0588V62.1883ZM149.541 62.1883V64.7995H152.152V62.1883H149.541ZM149.541 50.4583H152.152V47.847H149.541V50.4583ZM113.875 50.4583H111.264V53.0695H113.875V50.4583ZM113.875 44.6102V41.999H111.264V44.6102H113.875ZM149.541 44.6102V47.2214H152.152V44.6102H149.541ZM149.541 34.0362H152.152V31.425H149.541V34.0362ZM113.875 34.0362H111.264V36.6474H113.875V34.0362ZM113.875 28.1882V25.577H111.264V28.1882H113.875ZM149.541 28.1882V30.7994H152.152V28.1882H149.541ZM149.541 16.4921H152.152V13.8809H149.541V16.4921ZM96.0588 16.4921V13.8809H93.4476V16.4921H96.0588ZM96.0588 64.7995H149.541V59.5771H96.0588V64.7995ZM152.152 62.1883V50.4583H146.93V62.1883H152.152ZM149.541 47.847H113.875V53.0695H149.541V47.847ZM116.486 50.4583V44.6102H111.264V50.4583H116.486ZM113.875 47.2214H149.541V41.999H113.875V47.2214ZM152.152 44.6102V34.0362H146.93V44.6102H152.152ZM149.541 31.425H113.875V36.6474H149.541V31.425ZM116.486 34.0362V28.1882H111.264V34.0362H116.486ZM113.875 30.7994H149.541V25.577H113.875V30.7994ZM152.152 28.1882V16.4921H146.93V28.1882H152.152ZM149.541 13.8809H96.0588V19.1033H149.541V13.8809ZM93.4476 16.4921V62.1883H98.67V16.4921H93.4476ZM195.542 62.1883V64.7995H198.153V62.1883H195.542ZM195.542 30.9762V28.365H192.931V30.9762H195.542ZM216.724 30.9762V33.5874H219.335V30.9762H216.724ZM216.724 16.4921H219.335V13.8809H216.724V16.4921ZM156.544 16.4921V13.8809H153.932V16.4921H156.544ZM156.544 30.9762H153.932V33.5874H156.544V30.9762ZM177.726 30.9762H180.337V28.365H177.726V30.9762ZM177.726 62.1883H175.114V64.7995H177.726V62.1883ZM198.153 62.1883V30.9762H192.931V62.1883H198.153ZM195.542 33.5874H216.724V28.365H195.542V33.5874ZM219.335 30.9762V16.4921H214.113V30.9762H219.335ZM216.724 13.8809H156.544V19.1033H216.724V13.8809ZM153.932 16.4921V30.9762H159.155V16.4921H153.932ZM156.544 33.5874H177.726V28.365H156.544V33.5874ZM175.114 30.9762V62.1883H180.337V30.9762H175.114ZM177.726 64.7995H195.542V59.5771H177.726V64.7995ZM241.407 29.7182L243.776 28.6201L241.413 23.5224L239.04 28.6152L241.407 29.7182ZM247.663 43.2162V45.8274H251.751L250.032 42.1182L247.663 43.2162ZM235.117 43.2162L232.75 42.1133L231.019 45.8274H235.117V43.2162ZM206.284 62.1883L203.983 60.9539L201.92 64.7995H206.284V62.1883ZM226.344 62.1883V64.7995H228.016L228.716 63.2812L226.344 62.1883ZM229.949 54.3683V51.7571H228.277L227.577 53.2753L229.949 54.3683ZM252.831 54.3683L255.202 53.2753L254.502 51.7571H252.831V54.3683ZM256.435 62.1883L254.063 63.2812L254.763 64.7995H256.435V62.1883ZM276.495 62.1883V64.7995H280.859L278.796 60.9539L276.495 62.1883ZM251.981 16.4921L254.282 15.2577L253.543 13.8809H251.981V16.4921ZM230.799 16.4921V13.8809H229.236L228.497 15.2577L230.799 16.4921ZM239.037 30.8162L245.293 44.3143L250.032 42.1182L243.776 28.6201L239.037 30.8162ZM247.663 40.605H235.117V45.8274H247.663V40.605ZM237.483 44.3192L243.773 30.8211L239.04 28.6152L232.75 42.1133L237.483 44.3192ZM206.284 64.7995H226.344V59.5771H206.284V64.7995ZM228.716 63.2812L232.32 55.4612L227.577 53.2753L223.973 61.0954L228.716 63.2812ZM229.949 56.9795H252.831V51.7571H229.949V56.9795ZM250.459 55.4612L254.063 63.2812L258.806 61.0954L255.202 53.2753L250.459 55.4612ZM256.435 64.7995H276.495V59.5771H256.435V64.7995ZM278.796 60.9539L254.282 15.2577L249.68 17.7265L274.194 63.4227L278.796 60.9539ZM251.981 13.8809H230.799V19.1033H251.981V13.8809ZM228.497 15.2577L203.983 60.9539L208.585 63.4227L233.1 17.7265L228.497 15.2577ZM286.149 16.4921L288.54 15.4416L287.854 13.8809H286.149V16.4921ZM266.089 16.4921V13.8809H261.819L263.765 17.682L266.089 16.4921ZM289.481 62.1883L287.157 63.3782L287.885 64.7995H289.481V62.1883ZM310.663 62.1883V64.7995H312.259L312.987 63.3795L310.663 62.1883ZM334.09 16.4921L336.413 17.6834L338.363 13.8809H334.09V16.4921ZM314.029 16.4921V13.8809H312.325L311.639 15.4416L314.029 16.4921ZM300.089 48.2142L297.699 49.2648L300.089 54.7048L302.48 49.2648L300.089 48.2142ZM286.149 13.8809H266.089V19.1033H286.149V13.8809ZM263.765 17.682L287.157 63.3782L291.806 60.9984L268.414 15.3023L263.765 17.682ZM289.481 64.7995H310.663V59.5771H289.481V64.7995ZM312.987 63.3795L336.413 17.6834L331.766 15.3009L308.34 60.9971L312.987 63.3795ZM334.09 13.8809H314.029V19.1033H334.09V13.8809ZM311.639 15.4416L297.699 47.1637L302.48 49.2648L316.42 17.5427L311.639 15.4416ZM302.48 47.1637L288.54 15.4416L283.759 17.5427L297.699 49.2648L302.48 47.1637ZM336.842 62.1883H334.231V64.7995H336.842V62.1883ZM390.324 62.1883V64.7995H392.936V62.1883H390.324ZM390.324 50.4583H392.936V47.847H390.324V50.4583ZM354.658 50.4583H352.047V53.0695H354.658V50.4583ZM354.658 44.6102V41.999H352.047V44.6102H354.658ZM390.324 44.6102V47.2214H392.936V44.6102H390.324ZM390.324 34.0362H392.936V31.425H390.324V34.0362ZM354.658 34.0362H352.047V36.6474H354.658V34.0362ZM354.658 28.1882V25.577H352.047V28.1882H354.658ZM390.324 28.1882V30.7994H392.936V28.1882H390.324ZM390.324 16.4921H392.936V13.8809H390.324V16.4921ZM336.842 16.4921V13.8809H334.231V16.4921H336.842ZM336.842 64.7995H390.324V59.5771H336.842V64.7995ZM392.936 62.1883V50.4583H387.713V62.1883H392.936ZM390.324 47.847H354.658V53.0695H390.324V47.847ZM357.269 50.4583V44.6102H352.047V50.4583H357.269ZM354.658 47.2214H390.324V41.999H354.658V47.2214ZM392.936 44.6102V34.0362H387.713V44.6102H392.936ZM390.324 31.425H354.658V36.6474H390.324V31.425ZM357.269 34.0362V28.1882H352.047V34.0362H357.269ZM354.658 30.7994H390.324V25.577H354.658V30.7994ZM392.936 28.1882V16.4921H387.713V28.1882H392.936ZM390.324 13.8809H336.842V19.1033H390.324V13.8809ZM334.231 16.4921V62.1883H339.453V16.4921H334.231ZM401.203 16.4581V13.8469H398.592V16.4581H401.203ZM401.203 62.1543H398.592V64.7655H401.203V62.1543ZM419.019 62.1543V64.7655H421.63V62.1543H419.019ZM419.019 51.0023V48.391H416.408V51.0023H419.019ZM434.931 51.0023L436.999 49.4074L436.215 48.391H434.931V51.0023ZM443.533 62.1543L441.466 63.7491L442.25 64.7655H443.533V62.1543ZM462.505 62.1543V64.7655H467.842L464.567 60.5519L462.505 62.1543ZM452.543 49.3363L451.44 46.9693L448.472 48.3525L450.481 50.9386L452.543 49.3363ZM459.751 43.0802L457.57 41.6441L457.566 41.6505L459.751 43.0802ZM462.505 33.7302L459.894 33.6926L459.894 33.7114V33.7302H462.505ZM445.233 16.4581V19.0693H445.247L445.261 19.0692L445.233 16.4581ZM419.019 37.6062H416.408V40.2174H419.019V37.6062ZM419.019 29.8202V27.209H416.408V29.8202H419.019ZM398.592 16.4581V62.1543H403.814V16.4581H398.592ZM401.203 64.7655H419.019V59.5431H401.203V64.7655ZM421.63 62.1543V51.0023H416.408V62.1543H421.63ZM419.019 53.6135H434.931V48.391H419.019V53.6135ZM432.864 52.5971L441.466 63.7491L445.601 60.5595L436.999 49.4074L432.864 52.5971ZM443.533 64.7655H462.505V59.5431H443.533V64.7655ZM464.567 60.5519L454.605 47.7339L450.481 50.9386L460.444 63.7567L464.567 60.5519ZM453.646 51.7032C457.085 50.1008 459.872 47.6654 461.936 44.5099L457.566 41.6505C456.027 44.0031 453.985 45.7837 451.44 46.9693L453.646 51.7032ZM461.932 44.5164C464.059 41.287 465.116 37.6565 465.116 33.7302H459.894C459.894 36.672 459.116 39.2974 457.57 41.6441L461.932 44.5164ZM465.116 33.7678C465.274 22.8324 456.075 13.7293 445.205 13.8471L445.261 19.0692C453.227 18.9829 460.009 25.7239 459.894 33.6926L465.116 33.7678ZM445.233 13.8469H401.203V19.0693H445.233V13.8469ZM440.745 32.4314C441.479 32.4314 442.044 32.9963 442.044 33.7302H447.266C447.266 30.1121 444.363 27.209 440.745 27.209V32.4314ZM442.044 33.7302C442.044 34.0838 441.951 34.3399 441.653 34.6378L445.346 38.3306C446.612 37.0645 447.266 35.4846 447.266 33.7302H442.044ZM441.653 34.6378C441.41 34.8807 441.163 34.995 440.745 34.995V40.2174C442.504 40.2174 444.092 39.5837 445.346 38.3306L441.653 34.6378ZM440.745 34.995H419.019V40.2174H440.745V34.995ZM421.63 37.6062V29.8202H416.408V37.6062H421.63ZM419.019 32.4314H440.745V27.209H419.019V32.4314ZM511.498 31.4862L509.226 32.7725L509.976 34.0974H511.498V31.4862ZM530.164 31.4862V34.0974H533.105L532.757 31.1775L530.164 31.4862ZM499.156 15.3021L499.173 12.691L499.164 12.6909H499.156V15.3021ZM468.148 31.4862L470.759 31.494V31.4862H468.148ZM498.782 44.4402L498.65 47.0481L498.658 47.0485L498.782 44.4402ZM486.814 47.0922L489.076 45.7874L488.322 44.481H486.814V47.0922ZM468.148 47.0922V44.481H465.205L465.555 47.4031L468.148 47.0922ZM499.156 63.2423L499.15 65.8535H499.156V63.2423ZM530.164 47.0922L527.553 47.0845V47.0922H530.164ZM499.53 34.1042L499.662 31.4963L499.654 31.4959L499.53 34.1042ZM489.425 31.4862C489.425 31.4642 489.428 31.4597 489.426 31.4665C489.424 31.4734 489.422 31.4774 489.423 31.4751C489.426 31.4706 489.464 31.4007 489.609 31.2824C489.934 31.0184 490.566 30.6972 491.6 30.4125C493.65 29.848 496.456 29.6434 499.156 29.6434V24.421C496.314 24.421 492.949 24.6244 490.214 25.3774C488.855 25.7514 487.44 26.3163 486.317 27.2285C485.12 28.2009 484.203 29.6288 484.203 31.4862H489.425ZM499.156 29.6434C501.854 29.6434 504.12 29.8548 505.878 30.4013C507.591 30.9336 508.629 31.7181 509.226 32.7725L513.771 30.1999C512.327 27.6503 509.982 26.2078 507.428 25.4141C504.919 24.6345 502.034 24.421 499.156 24.421V29.6434ZM511.498 34.0974H530.164V28.875H511.498V34.0974ZM532.757 31.1775C532.284 27.2019 530.979 23.9348 528.896 21.3204C526.82 18.7146 524.094 16.9099 521.01 15.658C514.955 13.1999 507.162 12.7419 499.173 12.691L499.139 17.9133C507.164 17.9644 514.025 18.4584 519.046 20.4968C521.5 21.4932 523.416 22.8228 524.812 24.5744C526.2 26.3173 527.195 28.6304 527.571 31.7949L532.757 31.1775ZM499.156 12.6909C491.047 12.6909 482.865 13.4684 476.623 16.0908C473.47 17.4151 470.68 19.2645 468.674 21.848C466.639 24.4681 465.537 27.6851 465.537 31.4862H470.759C470.759 28.7592 471.527 26.6893 472.799 25.0508C474.099 23.3758 476.052 21.9952 478.645 20.9055C483.895 18.6999 491.217 17.9133 499.156 17.9133V12.6909ZM465.537 31.4784C465.526 35.1238 466.989 38.0115 469.373 40.1733C471.669 42.2552 474.738 43.5992 477.955 44.5162C484.368 46.3439 492.359 46.7293 498.65 47.0481L498.914 41.8324C492.455 41.5051 485.112 41.1255 479.387 39.4938C476.535 38.681 474.334 37.6217 472.881 36.3045C471.517 35.0674 470.753 33.5606 470.759 31.494L465.537 31.4784ZM498.658 47.0485C502.298 47.221 505.309 47.3783 507.413 47.7191C508.487 47.8932 509.085 48.0809 509.352 48.2145C509.648 48.3629 508.887 48.0718 508.887 47.0922H514.109C514.109 45.1097 512.656 44.0281 511.689 43.5443C510.692 43.0457 509.456 42.7596 508.248 42.5639C505.787 42.1652 502.44 41.9994 498.906 41.832L498.658 47.0485ZM508.887 47.0922C508.887 47.1018 508.886 47.0959 508.89 47.0808C508.892 47.0742 508.894 47.068 508.896 47.0629C508.898 47.0579 508.899 47.0554 508.899 47.0559C508.898 47.0563 508.889 47.0733 508.861 47.1056C508.833 47.1386 508.785 47.1866 508.711 47.2465C508.378 47.5146 507.737 47.84 506.7 48.1312C504.646 48.7076 501.838 48.9351 499.156 48.9351V54.1575C502.016 54.1575 505.379 53.926 508.111 53.1593C509.466 52.779 510.872 52.2119 511.987 51.3134C513.169 50.3612 514.109 48.9485 514.109 47.0922H508.887ZM499.156 48.9351C496.472 48.9351 494.204 48.7088 492.443 48.1545C490.718 47.6117 489.672 46.8203 489.076 45.7874L484.552 48.3971C485.996 50.9002 488.333 52.3358 490.875 53.136C493.381 53.9247 496.264 54.1575 499.156 54.1575V48.9351ZM486.814 44.481H468.148V49.7035H486.814V44.481ZM465.555 47.4031C466.029 51.3559 467.336 54.6111 469.417 57.2205C471.491 59.8207 474.215 61.6302 477.297 62.8888C483.355 65.3619 491.147 65.8365 499.15 65.8535L499.162 60.6311C491.151 60.6141 484.289 60.1027 479.271 58.0538C476.816 57.0514 474.897 55.7159 473.5 53.964C472.11 52.2214 471.117 49.9176 470.741 46.7814L465.555 47.4031ZM499.156 65.8535C507.263 65.8535 515.445 65.0849 521.686 62.4719C524.839 61.1523 527.63 59.3075 529.637 56.7266C531.673 54.109 532.775 50.8933 532.775 47.0922H527.553C527.553 49.8192 526.786 51.8862 525.515 53.5208C524.215 55.1921 522.263 56.5688 519.67 57.6546C514.419 59.8527 507.097 60.6311 499.156 60.6311V65.8535ZM532.775 47.1C532.786 43.4489 531.325 40.5554 528.942 38.3879C526.646 36.3003 523.576 34.9524 520.358 34.033C513.945 32.2005 505.953 31.8151 499.662 31.4963L499.398 36.7121C505.857 37.0393 513.199 37.4189 518.924 39.0544C521.775 39.869 523.976 40.9309 525.428 42.2518C526.793 43.4928 527.559 45.0065 527.553 47.0845L532.775 47.1ZM499.654 31.4959C496.008 31.3231 492.997 31.1744 490.89 30.8408C489.814 30.6705 489.217 30.4856 488.951 30.3539C488.657 30.2083 489.425 30.5012 489.425 31.4862H484.203C484.203 33.4742 485.663 34.5533 486.633 35.0336C487.63 35.5276 488.867 35.8081 490.074 35.999C492.531 36.388 495.878 36.5453 499.406 36.7125L499.654 31.4959ZM536.317 62.1883H533.706V64.7995H536.317V62.1883ZM589.799 62.1883V64.7995H592.41V62.1883H589.799ZM589.799 50.4583H592.41V47.847H589.799V50.4583ZM554.133 50.4583H551.522V53.0695H554.133V50.4583ZM554.133 44.6102V41.999H551.522V44.6102H554.133ZM589.799 44.6102V47.2214H592.41V44.6102H589.799ZM589.799 34.0362H592.41V31.425H589.799V34.0362ZM554.133 34.0362H551.522V36.6474H554.133V34.0362ZM554.133 28.1882V25.577H551.522V28.1882H554.133ZM589.799 28.1882V30.7994H592.41V28.1882H589.799ZM589.799 16.4921H592.41V13.8809H589.799V16.4921ZM536.317 16.4921V13.8809H533.706V16.4921H536.317ZM536.317 64.7995H589.799V59.5771H536.317V64.7995ZM592.41 62.1883V50.4583H587.188V62.1883H592.41ZM589.799 47.847H554.133V53.0695H589.799V47.847ZM556.744 50.4583V44.6102H551.522V50.4583H556.744ZM554.133 47.2214H589.799V41.999H554.133V47.2214ZM592.41 44.6102V34.0362H587.188V44.6102H592.41ZM589.799 31.425H554.133V36.6474H589.799V31.425ZM556.744 34.0362V28.1882H551.522V34.0362H556.744ZM554.133 30.7994H589.799V25.577H554.133V30.7994ZM592.41 28.1882V16.4921H587.188V28.1882H592.41ZM589.799 13.8809H536.317V19.1033H589.799V13.8809ZM533.706 16.4921V62.1883H538.928V16.4921H533.706ZM599.429 12.0041V9.39291H596.818V12.0041H599.429ZM599.429 42.0942H596.818V44.7054H599.429V42.0942ZM617.245 42.0942V44.7054H619.857V42.0942H617.245ZM617.245 12.0041H619.857V9.39291H617.245V12.0041ZM599.429 48.7922V46.181H596.818V48.7922H599.429ZM599.429 62.1543H596.818V64.7655H599.429V62.1543ZM617.245 62.1543V64.7655H619.857V62.1543H617.245ZM617.245 48.7922H619.857V46.181H617.245V48.7922ZM596.818 12.0041V42.0942H602.04V12.0041H596.818ZM599.429 44.7054H617.245V39.483H599.429V44.7054ZM619.857 42.0942V12.0041H614.634V42.0942H619.857ZM617.245 9.39291H599.429V14.6153H617.245V9.39291ZM596.818 48.7922V62.1543H602.04V48.7922H596.818ZM599.429 64.7655H617.245V59.5431H599.429V64.7655ZM619.857 62.1543V48.7922H614.634V62.1543H619.857ZM617.245 46.181H599.429V51.4035H617.245V46.181Z" fill="url(#paint0_linear_2_286)"/>
</g>
<path d="M4.0218 62.1203H2.01987V64.1222H4.0218V62.1203ZM21.8379 62.1203V64.1222H23.8398V62.1203H21.8379ZM21.8379 37.7422L23.4531 36.5595L19.8359 31.6195V37.7422H21.8379ZM39.6879 62.1203L38.0727 63.303L38.6726 64.1222H39.6879V62.1203ZM48.596 62.1203V64.1222H49.6113L50.2112 63.303L48.596 62.1203ZM66.446 37.7422H68.448V31.6195L64.8308 36.5595L66.446 37.7422ZM66.446 62.1203H64.4441V64.1222H66.446V62.1203ZM84.2621 62.1203V64.1222H86.264V62.1203H84.2621ZM84.2621 16.4241H86.264V14.4222H84.2621V16.4241ZM61.992 16.4241V14.4222H61.0156L60.4144 15.1917L61.992 16.4241ZM44.1419 39.2722L42.5632 40.5032L44.1404 42.5259L45.7195 40.5047L44.1419 39.2722ZM26.3259 16.4241L27.9046 15.1931L27.3035 14.4222H26.3259V16.4241ZM4.0218 16.4241V14.4222H2.01987V16.4241H4.0218ZM4.0218 64.1222H21.8379V60.1184H4.0218V64.1222ZM23.8398 62.1203V37.7422H19.8359V62.1203H23.8398ZM20.2226 38.9249L38.0727 63.303L41.3032 60.9376L23.4531 36.5595L20.2226 38.9249ZM39.6879 64.1222H48.596V60.1184H39.6879V64.1222ZM50.2112 63.303L68.0612 38.9249L64.8308 36.5595L46.9807 60.9376L50.2112 63.303ZM64.4441 37.7422V62.1203H68.448V37.7422H64.4441ZM66.446 64.1222H84.2621V60.1184H66.446V64.1222ZM86.264 62.1203V16.4241H82.2602V62.1203H86.264ZM84.2621 14.4222H61.992V18.4261H84.2621V14.4222ZM60.4144 15.1917L42.5644 38.0397L45.7195 40.5047L63.5696 17.6566L60.4144 15.1917ZM45.7206 38.0412L27.9046 15.1931L24.7472 17.6551L42.5632 40.5032L45.7206 38.0412ZM26.3259 14.4222H4.0218V18.4261H26.3259V14.4222ZM2.01987 16.4241V62.1203H6.02373V16.4241H2.01987ZM96.0588 62.1883H94.0568V64.1902H96.0588V62.1883ZM149.541 62.1883V64.1902H151.543V62.1883H149.541ZM149.541 50.4583H151.543V48.4563H149.541V50.4583ZM113.875 50.4583H111.873V52.4602H113.875V50.4583ZM113.875 44.6102V42.6083H111.873V44.6102H113.875ZM149.541 44.6102V46.6122H151.543V44.6102H149.541ZM149.541 34.0362H151.543V32.0343H149.541V34.0362ZM113.875 34.0362H111.873V36.0381H113.875V34.0362ZM113.875 28.1882V26.1862H111.873V28.1882H113.875ZM149.541 28.1882V30.1901H151.543V28.1882H149.541ZM149.541 16.4921H151.543V14.4902H149.541V16.4921ZM96.0588 16.4921V14.4902H94.0568V16.4921H96.0588ZM96.0588 64.1902H149.541V60.1864H96.0588V64.1902ZM151.543 62.1883V50.4583H147.539V62.1883H151.543ZM149.541 48.4563H113.875V52.4602H149.541V48.4563ZM115.877 50.4583V44.6102H111.873V50.4583H115.877ZM113.875 46.6122H149.541V42.6083H113.875V46.6122ZM151.543 44.6102V34.0362H147.539V44.6102H151.543ZM149.541 32.0343H113.875V36.0381H149.541V32.0343ZM115.877 34.0362V28.1882H111.873V34.0362H115.877ZM113.875 30.1901H149.541V26.1862H113.875V30.1901ZM151.543 28.1882V16.4921H147.539V28.1882H151.543ZM149.541 14.4902H96.0588V18.4941H149.541V14.4902ZM94.0568 16.4921V62.1883H98.0607V16.4921H94.0568ZM195.542 62.1883V64.1902H197.544V62.1883H195.542ZM195.542 30.9762V28.9743H193.54V30.9762H195.542ZM216.724 30.9762V32.9781H218.726V30.9762H216.724ZM216.724 16.4921H218.726V14.4902H216.724V16.4921ZM156.544 16.4921V14.4902H154.542V16.4921H156.544ZM156.544 30.9762H154.542V32.9781H156.544V30.9762ZM177.726 30.9762H179.728V28.9743H177.726V30.9762ZM177.726 62.1883H175.724V64.1902H177.726V62.1883ZM197.544 62.1883V30.9762H193.54V62.1883H197.544ZM195.542 32.9781H216.724V28.9743H195.542V32.9781ZM218.726 30.9762V16.4921H214.722V30.9762H218.726ZM216.724 14.4902H156.544V18.4941H216.724V14.4902ZM154.542 16.4921V30.9762H158.546V16.4921H154.542ZM156.544 32.9781H177.726V28.9743H156.544V32.9781ZM175.724 30.9762V62.1883H179.728V30.9762H175.724ZM177.726 64.1902H195.542V60.1864H177.726V64.1902ZM241.407 29.7182L243.223 28.8764L241.411 24.9681L239.592 28.8726L241.407 29.7182ZM247.663 43.2162V45.2182H250.797L249.479 42.3744L247.663 43.2162ZM235.117 43.2162L233.302 42.3706L231.975 45.2182H235.117V43.2162ZM206.284 62.1883L204.52 61.2419L202.939 64.1902H206.284V62.1883ZM226.344 62.1883V64.1902H227.626L228.163 63.0262L226.344 62.1883ZM229.949 54.3683V52.3663H228.667L228.13 53.5303L229.949 54.3683ZM252.831 54.3683L254.649 53.5303L254.112 52.3663H252.831V54.3683ZM256.435 62.1883L254.616 63.0262L255.153 64.1902H256.435V62.1883ZM276.495 62.1883V64.1902H279.84L278.259 61.2419L276.495 62.1883ZM251.981 16.4921L253.745 15.5458L253.178 14.4902H251.981V16.4921ZM230.799 16.4921V14.4902H229.601L229.034 15.5458L230.799 16.4921ZM239.59 30.56L245.846 44.0581L249.479 42.3744L243.223 28.8764L239.59 30.56ZM247.663 41.2143H235.117V45.2182H247.663V41.2143ZM236.931 44.0618L243.221 30.5638L239.592 28.8726L233.302 42.3706L236.931 44.0618ZM206.284 64.1902H226.344V60.1864H206.284V64.1902ZM228.163 63.0262L231.767 55.2062L228.13 53.5303L224.526 61.3504L228.163 63.0262ZM229.949 56.3702H252.831V52.3663H229.949V56.3702ZM251.012 55.2062L254.616 63.0262L258.253 61.3504L254.649 53.5303L251.012 55.2062ZM256.435 64.1902H276.495V60.1864H256.435V64.1902ZM278.259 61.2419L253.745 15.5458L250.216 17.4385L274.731 63.1347L278.259 61.2419ZM251.981 14.4902H230.799V18.4941H251.981V14.4902ZM229.034 15.5458L204.52 61.2419L208.049 63.1347L232.563 17.4385L229.034 15.5458ZM286.149 16.4921L287.982 15.6867L287.456 14.4902H286.149V16.4921ZM266.089 16.4921V14.4902H262.816L264.307 17.4044L266.089 16.4921ZM289.481 62.1883L287.699 63.1005L288.257 64.1902H289.481V62.1883ZM310.663 62.1883V64.1902H311.887L312.445 63.1016L310.663 62.1883ZM334.09 16.4921L335.871 17.4054L337.365 14.4902H334.09V16.4921ZM314.029 16.4921V14.4902H312.723L312.197 15.6867L314.029 16.4921ZM300.089 48.2142L298.257 49.0196L300.089 53.1903L301.922 49.0196L300.089 48.2142ZM286.149 14.4902H266.089V18.4941H286.149V14.4902ZM264.307 17.4044L287.699 63.1005L291.263 61.2761L267.871 15.5799L264.307 17.4044ZM289.481 64.1902H310.663V60.1864H289.481V64.1902ZM312.445 63.1016L335.871 17.4054L332.308 15.5789L308.882 61.275L312.445 63.1016ZM334.09 14.4902H314.029V18.4941H334.09V14.4902ZM312.197 15.6867L298.257 47.4089L301.922 49.0196L315.862 17.2975L312.197 15.6867ZM301.922 47.4089L287.982 15.6867L284.317 17.2975L298.257 49.0196L301.922 47.4089ZM336.842 62.1883H334.84V64.1902H336.842V62.1883ZM390.324 62.1883V64.1902H392.326V62.1883H390.324ZM390.324 50.4583H392.326V48.4563H390.324V50.4583ZM354.658 50.4583H352.656V52.4602H354.658V50.4583ZM354.658 44.6102V42.6083H352.656V44.6102H354.658ZM390.324 44.6102V46.6122H392.326V44.6102H390.324ZM390.324 34.0362H392.326V32.0343H390.324V34.0362ZM354.658 34.0362H352.656V36.0381H354.658V34.0362ZM354.658 28.1882V26.1862H352.656V28.1882H354.658ZM390.324 28.1882V30.1901H392.326V28.1882H390.324ZM390.324 16.4921H392.326V14.4902H390.324V16.4921ZM336.842 16.4921V14.4902H334.84V16.4921H336.842ZM336.842 64.1902H390.324V60.1864H336.842V64.1902ZM392.326 62.1883V50.4583H388.322V62.1883H392.326ZM390.324 48.4563H354.658V52.4602H390.324V48.4563ZM356.66 50.4583V44.6102H352.656V50.4583H356.66ZM354.658 46.6122H390.324V42.6083H354.658V46.6122ZM392.326 44.6102V34.0362H388.322V44.6102H392.326ZM390.324 32.0343H354.658V36.0381H390.324V32.0343ZM356.66 34.0362V28.1882H352.656V34.0362H356.66ZM354.658 30.1901H390.324V26.1862H354.658V30.1901ZM392.326 28.1882V16.4921H388.322V28.1882H392.326ZM390.324 14.4902H336.842V18.4941H390.324V14.4902ZM334.84 16.4921V62.1883H338.844V16.4921H334.84ZM401.203 16.4581V14.4562H399.201V16.4581H401.203ZM401.203 62.1543H399.201V64.1562H401.203V62.1543ZM419.019 62.1543V64.1562H421.021V62.1543H419.019ZM419.019 51.0023V49.0003H417.017V51.0023H419.019ZM434.931 51.0023L436.516 49.7796L435.915 49.0003H434.931V51.0023ZM443.533 62.1543L441.948 63.377L442.549 64.1562H443.533V62.1543ZM462.505 62.1543V64.1562H466.597L464.086 60.9258L462.505 62.1543ZM452.543 49.3363L451.698 47.5216L449.422 48.5821L450.963 50.5647L452.543 49.3363ZM459.751 43.0802L458.079 41.9792L458.076 41.9841L459.751 43.0802ZM462.505 33.7302L460.504 33.7014L460.503 33.7158V33.7302H462.505ZM445.233 16.4581V18.4601H445.244L445.255 18.4599L445.233 16.4581ZM419.019 37.6062H417.017V39.6081H419.019V37.6062ZM419.019 29.8202V27.8183H417.017V29.8202H419.019ZM399.201 16.4581V62.1543H403.205V16.4581H399.201ZM401.203 64.1562H419.019V60.1524H401.203V64.1562ZM421.021 62.1543V51.0023H417.017V62.1543H421.021ZM419.019 53.0042H434.931V49.0003H419.019V53.0042ZM433.346 52.225L441.948 63.377L445.118 60.9316L436.516 49.7796L433.346 52.225ZM443.533 64.1562H462.505V60.1524H443.533V64.1562ZM464.086 60.9258L454.124 48.1078L450.963 50.5647L460.925 63.3828L464.086 60.9258ZM453.389 51.1509C456.724 49.5972 459.423 47.2381 461.426 44.1763L458.076 41.9841C456.475 44.4304 454.347 46.2873 451.698 47.5216L453.389 51.1509ZM461.423 44.1813C463.482 41.0549 464.507 37.5416 464.507 33.7302H460.503C460.503 36.7868 459.692 39.5295 458.079 41.9792L461.423 44.1813ZM464.507 33.759C464.659 23.1697 455.743 14.3423 445.212 14.4563L445.255 18.4599C453.56 18.37 460.623 25.3866 460.504 33.7014L464.507 33.759ZM445.233 14.4562H401.203V18.4601H445.233V14.4562ZM440.745 31.8221C441.816 31.8221 442.653 32.6598 442.653 33.7302H446.657C446.657 30.4486 444.027 27.8183 440.745 27.8183V31.8221ZM442.653 33.7302C442.653 34.2472 442.494 34.6578 442.084 35.0686L444.915 37.8998C446.068 36.7466 446.657 35.3212 446.657 33.7302H442.653ZM442.084 35.0686C441.723 35.4294 441.319 35.6043 440.745 35.6043V39.6081C442.347 39.6081 443.78 39.035 444.915 37.8998L442.084 35.0686ZM440.745 35.6043H419.019V39.6081H440.745V35.6043ZM421.021 37.6062V29.8202H417.017V37.6062H421.021ZM419.019 31.8221H440.745V27.8183H419.019V31.8221ZM511.498 31.4862L509.756 32.4723L510.331 33.4881H511.498V31.4862ZM530.164 31.4862V33.4881H532.419L532.152 31.2495L530.164 31.4862ZM499.156 15.3021L499.169 13.3002H499.156V15.3021ZM468.148 31.4862L470.15 31.4921V31.4862H468.148ZM498.782 44.4402L498.681 46.4396L498.687 46.4399L498.782 44.4402ZM486.814 47.0922L488.548 46.0918L487.97 45.0903H486.814V47.0922ZM468.148 47.0922V45.0903H465.892L466.16 47.3306L468.148 47.0922ZM499.156 63.2423L499.152 65.2442H499.156V63.2423ZM530.164 47.0922L528.162 47.0863V47.0922H530.164ZM499.53 34.1042L499.631 32.1048L499.625 32.1045L499.53 34.1042ZM488.816 31.4862C488.816 31.3034 488.864 31.1029 489.225 30.8094C489.643 30.4698 490.366 30.1202 491.438 29.825C493.568 29.2386 496.439 29.0341 499.156 29.0341V25.0302C496.331 25.0302 493.031 25.2338 490.375 25.9648C489.055 26.3284 487.731 26.8649 486.701 27.7015C485.614 28.5842 484.812 29.85 484.812 31.4862H488.816ZM499.156 29.0341C501.875 29.0341 504.213 29.2458 506.059 29.8194C507.87 30.3822 509.06 31.2435 509.756 32.4723L513.24 30.5C511.896 28.1248 509.703 26.7591 507.247 25.9959C504.826 25.2436 502.013 25.0302 499.156 25.0302V29.0341ZM511.498 33.4881H530.164V29.4843H511.498V33.4881ZM532.152 31.2495C531.69 27.3686 530.422 24.2128 528.42 21.7C526.423 19.1939 523.791 17.4446 520.781 16.2225C514.847 13.8134 507.162 13.3512 499.169 13.3002L499.143 17.304C507.164 17.3551 514.133 17.8449 519.275 19.9323C521.802 20.9585 523.813 22.3435 525.288 24.1948C526.758 26.0393 527.788 28.4638 528.176 31.7228L532.152 31.2495ZM499.156 13.3002C491.067 13.3002 482.985 14.0787 476.859 16.6525C473.771 17.9494 471.079 19.7441 469.155 22.2217C467.21 24.7272 466.146 27.8104 466.146 31.4862H470.15C470.15 28.6339 470.956 26.4301 472.317 24.6772C473.7 22.8962 475.75 21.4609 478.409 20.3438C483.775 18.0895 491.197 17.3041 499.156 17.3041V13.3002ZM466.146 31.4802C466.136 34.9414 467.517 37.668 469.782 39.722C471.98 41.7146 474.948 43.0254 478.122 43.9302C484.455 45.7351 492.37 46.1199 498.681 46.4396L498.883 42.4409C492.444 42.1146 485.025 41.7343 479.22 40.0797C476.325 39.2548 474.023 38.1622 472.472 36.7559C470.989 35.4109 470.143 33.743 470.15 31.4921L466.146 31.4802ZM498.687 46.4399C502.315 46.6118 505.365 46.7701 507.51 47.1176C508.6 47.2942 509.272 47.4935 509.624 47.6697C509.999 47.8571 509.496 47.7262 509.496 47.0922H513.5C513.5 45.4553 512.305 44.5338 511.416 44.0891C510.505 43.6331 509.343 43.3585 508.15 43.1653C505.731 42.7734 502.423 42.6086 498.877 42.4406L498.687 46.4399ZM509.496 47.0922C509.496 47.2308 509.466 47.4204 509.093 47.7209C508.669 48.0626 507.939 48.4162 506.864 48.7178C504.732 49.3164 501.859 49.5443 499.156 49.5443V53.5482C501.996 53.5482 505.294 53.3172 507.946 52.5727C509.264 52.2028 510.581 51.6639 511.605 50.8389C512.68 49.9728 513.5 48.7216 513.5 47.0922H509.496ZM499.156 49.5443C496.447 49.5443 494.108 49.3174 492.26 48.7357C490.44 48.1629 489.243 47.2963 488.548 46.0918L485.08 48.0927C486.425 50.4242 488.611 51.7846 491.058 52.5548C493.477 53.3162 496.289 53.5482 499.156 53.5482V49.5443ZM486.814 45.0903H468.148V49.0942H486.814V45.0903ZM466.16 47.3306C466.623 51.1881 467.892 54.3323 469.893 56.8406C471.888 59.3418 474.518 61.096 477.527 62.3247C483.464 64.7483 491.147 65.2272 499.152 65.2442L499.16 61.2404C491.151 61.2234 484.18 60.7163 479.041 58.6179C476.513 57.5856 474.499 56.1948 473.023 54.344C471.553 52.5002 470.523 50.0854 470.136 46.8539L466.16 47.3306ZM499.156 65.2442C507.244 65.2442 515.325 64.4745 521.451 61.9099C524.538 60.6175 527.232 58.8273 529.156 56.3526C531.103 53.8497 532.166 50.768 532.166 47.0922H528.162C528.162 49.9445 527.356 52.1456 525.996 53.8948C524.613 55.6722 522.564 57.1035 519.905 58.2167C514.539 60.4631 507.117 61.2404 499.156 61.2404V65.2442ZM532.166 47.0982C532.176 43.6307 530.797 40.8981 528.532 38.8387C526.334 36.8405 523.366 35.526 520.191 34.6188C513.858 32.8093 505.942 32.4246 499.631 32.1048L499.429 36.1036C505.868 36.4298 513.286 36.8101 519.091 38.4686C521.985 39.2954 524.287 40.3907 525.838 41.801C527.322 43.1501 528.169 44.8248 528.162 47.0863L532.166 47.0982ZM499.625 32.1045C495.993 31.9324 492.943 31.7827 490.795 31.4426C489.703 31.2699 489.032 31.0739 488.681 30.8998C488.308 30.7152 488.816 30.848 488.816 31.4862H484.812C484.812 33.1274 486.013 34.0464 486.903 34.4876C487.815 34.9394 488.978 35.2087 490.169 35.3973C492.585 35.7797 495.893 35.936 499.435 36.1039L499.625 32.1045ZM536.317 62.1883H534.315V64.1902H536.317V62.1883ZM589.799 62.1883V64.1902H591.801V62.1883H589.799ZM589.799 50.4583H591.801V48.4563H589.799V50.4583ZM554.133 50.4583H552.131V52.4602H554.133V50.4583ZM554.133 44.6102V42.6083H552.131V44.6102H554.133ZM589.799 44.6102V46.6122H591.801V44.6102H589.799ZM589.799 34.0362H591.801V32.0343H589.799V34.0362ZM554.133 34.0362H552.131V36.0381H554.133V34.0362ZM554.133 28.1882V26.1862H552.131V28.1882H554.133ZM589.799 28.1882V30.1901H591.801V28.1882H589.799ZM589.799 16.4921H591.801V14.4902H589.799V16.4921ZM536.317 16.4921V14.4902H534.315V16.4921H536.317ZM536.317 64.1902H589.799V60.1864H536.317V64.1902ZM591.801 62.1883V50.4583H587.797V62.1883H591.801ZM589.799 48.4563H554.133V52.4602H589.799V48.4563ZM556.135 50.4583V44.6102H552.131V50.4583H556.135ZM554.133 46.6122H589.799V42.6083H554.133V46.6122ZM591.801 44.6102V34.0362H587.797V44.6102H591.801ZM589.799 32.0343H554.133V36.0381H589.799V32.0343ZM556.135 34.0362V28.1882H552.131V34.0362H556.135ZM554.133 30.1901H589.799V26.1862H554.133V30.1901ZM591.801 28.1882V16.4921H587.797V28.1882H591.801ZM589.799 14.4902H536.317V18.4941H589.799V14.4902ZM534.315 16.4921V62.1883H538.319V16.4921H534.315ZM599.429 12.0041V10.0022H597.427V12.0041H599.429ZM599.429 42.0942H597.427V44.0962H599.429V42.0942ZM617.245 42.0942V44.0962H619.247V42.0942H617.245ZM617.245 12.0041H619.247V10.0022H617.245V12.0041ZM599.429 48.7922V46.7903H597.427V48.7922H599.429ZM599.429 62.1543H597.427V64.1562H599.429V62.1543ZM617.245 62.1543V64.1562H619.247V62.1543H617.245ZM617.245 48.7922H619.247V46.7903H617.245V48.7922ZM597.427 12.0041V42.0942H601.431V12.0041H597.427ZM599.429 44.0962H617.245V40.0923H599.429V44.0962ZM619.247 42.0942V12.0041H615.243V42.0942H619.247ZM617.245 10.0022H599.429V14.006H617.245V10.0022ZM597.427 48.7922V62.1543H601.431V48.7922H597.427ZM599.429 64.1562H617.245V60.1524H599.429V64.1562ZM619.247 62.1543V48.7922H615.243V62.1543H619.247ZM617.245 46.7903H599.429V50.7942H617.245V46.7903Z" fill="url(#paint1_linear_2_286)"/>
<g filter="url(#filter1_f_2_286)">
<path d="M4.0218 62.1203H3.32548V62.8166H4.0218V62.1203ZM21.8379 62.1203V62.8166H22.5342V62.1203H21.8379ZM21.8379 37.7422L22.3997 37.3308L21.1415 35.6126V37.7422H21.8379ZM39.6879 62.1203L39.1261 62.5317L39.3348 62.8166H39.6879V62.1203ZM48.596 62.1203V62.8166H48.9491L49.1578 62.5317L48.596 62.1203ZM66.446 37.7422H67.1423V35.6126L65.8842 37.3308L66.446 37.7422ZM66.446 62.1203H65.7497V62.8166H66.446V62.1203ZM84.2621 62.1203V62.8166H84.9584V62.1203H84.2621ZM84.2621 16.4241H84.9584V15.7278H84.2621V16.4241ZM61.992 16.4241V15.7278H61.6524L61.4433 15.9954L61.992 16.4241ZM44.1419 39.2722L43.5928 39.7004L44.1414 40.4039L44.6907 39.7009L44.1419 39.2722ZM26.3259 16.4241L26.875 15.996L26.6659 15.7278H26.3259V16.4241ZM4.0218 16.4241V15.7278H3.32548V16.4241H4.0218ZM4.0218 62.8166H21.8379V61.424H4.0218V62.8166ZM22.5342 62.1203V37.7422H21.1415V62.1203H22.5342ZM21.276 38.1536L39.1261 62.5317L40.2497 61.7089L22.3997 37.3308L21.276 38.1536ZM39.6879 62.8166H48.596V61.424H39.6879V62.8166ZM49.1578 62.5317L67.0078 38.1536L65.8842 37.3308L48.0341 61.7089L49.1578 62.5317ZM65.7497 37.7422V62.1203H67.1423V37.7422H65.7497ZM66.446 62.8166H84.2621V61.424H66.446V62.8166ZM84.9584 62.1203V16.4241H83.5658V62.1203H84.9584ZM84.2621 15.7278H61.992V17.1205H84.2621V15.7278ZM61.4433 15.9954L43.5932 38.8435L44.6907 39.7009L62.5407 16.8528L61.4433 15.9954ZM44.6911 38.844L26.875 15.996L25.7768 16.8523L43.5928 39.7004L44.6911 38.844ZM26.3259 15.7278H4.0218V17.1205H26.3259V15.7278ZM3.32548 16.4241V62.1203H4.71812V16.4241H3.32548ZM96.0588 62.1883H95.3624V62.8846H96.0588V62.1883ZM149.541 62.1883V62.8846H150.237V62.1883H149.541ZM149.541 50.4583H150.237V49.7619H149.541V50.4583ZM113.875 50.4583H113.179V51.1546H113.875V50.4583ZM113.875 44.6102V43.9139H113.179V44.6102H113.875ZM149.541 44.6102V45.3066H150.237V44.6102H149.541ZM149.541 34.0362H150.237V33.3399H149.541V34.0362ZM113.875 34.0362H113.179V34.7325H113.875V34.0362ZM113.875 28.1882V27.4919H113.179V28.1882H113.875ZM149.541 28.1882V28.8845H150.237V28.1882H149.541ZM149.541 16.4921H150.237V15.7958H149.541V16.4921ZM96.0588 16.4921V15.7958H95.3624V16.4921H96.0588ZM96.0588 62.8846H149.541V61.492H96.0588V62.8846ZM150.237 62.1883V50.4583H148.845V62.1883H150.237ZM149.541 49.7619H113.875V51.1546H149.541V49.7619ZM114.571 50.4583V44.6102H113.179V50.4583H114.571ZM113.875 45.3066H149.541V43.9139H113.875V45.3066ZM150.237 44.6102V34.0362H148.845V44.6102H150.237ZM149.541 33.3399H113.875V34.7325H149.541V33.3399ZM114.571 34.0362V28.1882H113.179V34.0362H114.571ZM113.875 28.8845H149.541V27.4919H113.875V28.8845ZM150.237 28.1882V16.4921H148.845V28.1882H150.237ZM149.541 15.7958H96.0588V17.1885H149.541V15.7958ZM95.3624 16.4921V62.1883H96.7551V16.4921H95.3624ZM195.542 62.1883V62.8846H196.238V62.1883H195.542ZM195.542 30.9762V30.2799H194.845V30.9762H195.542ZM216.724 30.9762V31.6725H217.42V30.9762H216.724ZM216.724 16.4921H217.42V15.7958H216.724V16.4921ZM156.544 16.4921V15.7958H155.847V16.4921H156.544ZM156.544 30.9762H155.847V31.6725H156.544V30.9762ZM177.726 30.9762H178.422V30.2799H177.726V30.9762ZM177.726 62.1883H177.029V62.8846H177.726V62.1883ZM196.238 62.1883V30.9762H194.845V62.1883H196.238ZM195.542 31.6725H216.724V30.2799H195.542V31.6725ZM217.42 30.9762V16.4921H216.028V30.9762H217.42ZM216.724 15.7958H156.544V17.1885H216.724V15.7958ZM155.847 16.4921V30.9762H157.24V16.4921H155.847ZM156.544 31.6725H177.726V30.2799H156.544V31.6725ZM177.029 30.9762V62.1883H178.422V30.9762H177.029ZM177.726 62.8846H195.542V61.492H177.726V62.8846ZM241.407 29.7182L242.038 29.4254L241.408 28.066L240.775 29.4241L241.407 29.7182ZM247.663 43.2162V43.9126H248.753L248.294 42.9234L247.663 43.2162ZM235.117 43.2162L234.485 42.9221L234.024 43.9126H235.117V43.2162ZM206.284 62.1883L205.671 61.8591L205.121 62.8846H206.284V62.1883ZM226.344 62.1883V62.8846H226.79L226.977 62.4797L226.344 62.1883ZM229.949 54.3683V53.6719H229.503L229.316 54.0768L229.949 54.3683ZM252.831 54.3683L253.463 54.0768L253.276 53.6719H252.831V54.3683ZM256.435 62.1883L255.802 62.4797L255.989 62.8846H256.435V62.1883ZM276.495 62.1883V62.8846H277.658L277.108 61.8591L276.495 62.1883ZM251.981 16.4921L252.594 16.163L252.397 15.7958H251.981V16.4921ZM230.799 16.4921V15.7958H230.382L230.185 16.163L230.799 16.4921ZM240.775 30.011L247.031 43.509L248.294 42.9234L242.038 29.4254L240.775 30.011ZM247.663 42.5199H235.117V43.9126H247.663V42.5199ZM235.748 43.5103L242.038 30.0123L240.775 29.4241L234.485 42.9221L235.748 43.5103ZM206.284 62.8846H226.344V61.492H206.284V62.8846ZM226.977 62.4797L230.581 54.6597L229.316 54.0768L225.712 61.8968L226.977 62.4797ZM229.949 55.0646H252.831V53.6719H229.949V55.0646ZM252.198 54.6597L255.802 62.4797L257.067 61.8968L253.463 54.0768L252.198 54.6597ZM256.435 62.8846H276.495V61.492H256.435V62.8846ZM277.108 61.8591L252.594 16.163L251.367 16.8213L275.881 62.5175L277.108 61.8591ZM251.981 15.7958H230.799V17.1885H251.981V15.7958ZM230.185 16.163L205.671 61.8591L206.898 62.5175L231.412 16.8213L230.185 16.163ZM286.149 16.4921L286.787 16.212L286.604 15.7958H286.149V16.4921ZM266.089 16.4921V15.7958H264.951L265.469 16.8094L266.089 16.4921ZM289.481 62.1883L288.862 62.5056L289.056 62.8846H289.481V62.1883ZM310.663 62.1883V62.8846H311.089L311.283 62.506L310.663 62.1883ZM334.09 16.4921L334.709 16.8098L335.229 15.7958H334.09V16.4921ZM314.029 16.4921V15.7958H313.575L313.392 16.212L314.029 16.4921ZM300.089 48.2142L299.452 48.4944L300.089 49.9451L300.727 48.4944L300.089 48.2142ZM286.149 15.7958H266.089V17.1885H286.149V15.7958ZM265.469 16.8094L288.862 62.5056L290.101 61.871L266.709 16.1748L265.469 16.8094ZM289.481 62.8846H310.663V61.492H289.481V62.8846ZM311.283 62.506L334.709 16.8098L333.47 16.1745L310.044 61.8706L311.283 62.506ZM334.09 15.7958H314.029V17.1885H334.09V15.7958ZM313.392 16.212L299.452 47.9341L300.727 48.4944L314.667 16.7723L313.392 16.212ZM300.727 47.9341L286.787 16.212L285.512 16.7723L299.452 48.4944L300.727 47.9341ZM336.842 62.1883H336.146V62.8846H336.842V62.1883ZM390.324 62.1883V62.8846H391.021V62.1883H390.324ZM390.324 50.4583H391.021V49.7619H390.324V50.4583ZM354.658 50.4583H353.962V51.1546H354.658V50.4583ZM354.658 44.6102V43.9139H353.962V44.6102H354.658ZM390.324 44.6102V45.3066H391.021V44.6102H390.324ZM390.324 34.0362H391.021V33.3399H390.324V34.0362ZM354.658 34.0362H353.962V34.7325H354.658V34.0362ZM354.658 28.1882V27.4919H353.962V28.1882H354.658ZM390.324 28.1882V28.8845H391.021V28.1882H390.324ZM390.324 16.4921H391.021V15.7958H390.324V16.4921ZM336.842 16.4921V15.7958H336.146V16.4921H336.842ZM336.842 62.8846H390.324V61.492H336.842V62.8846ZM391.021 62.1883V50.4583H389.628V62.1883H391.021ZM390.324 49.7619H354.658V51.1546H390.324V49.7619ZM355.355 50.4583V44.6102H353.962V50.4583H355.355ZM354.658 45.3066H390.324V43.9139H354.658V45.3066ZM391.021 44.6102V34.0362H389.628V44.6102H391.021ZM390.324 33.3399H354.658V34.7325H390.324V33.3399ZM355.355 34.0362V28.1882H353.962V34.0362H355.355ZM354.658 28.8845H390.324V27.4919H354.658V28.8845ZM391.021 28.1882V16.4921H389.628V28.1882H391.021ZM390.324 15.7958H336.842V17.1885H390.324V15.7958ZM336.146 16.4921V62.1883H337.538V16.4921H336.146ZM401.203 16.4581V15.7618H400.507V16.4581H401.203ZM401.203 62.1543H400.507V62.8506H401.203V62.1543ZM419.019 62.1543V62.8506H419.715V62.1543H419.019ZM419.019 51.0023V50.3059H418.323V51.0023H419.019ZM434.931 51.0023L435.483 50.577L435.273 50.3059H434.931V51.0023ZM443.533 62.1543L442.982 62.5796L443.191 62.8506H443.533V62.1543ZM462.505 62.1543V62.8506H463.928L463.055 61.727L462.505 62.1543ZM452.543 49.3363L452.249 48.7051L451.457 49.0739L451.993 49.7635L452.543 49.3363ZM459.751 43.0802L459.17 42.6973L459.169 42.699L459.751 43.0802ZM462.505 33.7302L461.809 33.7202V33.7302H462.505ZM445.233 16.4581V17.1545L445.241 17.1544L445.233 16.4581ZM419.019 37.6062H418.323V38.3025H419.019V37.6062ZM419.019 29.8202V29.1239H418.323V29.8202H419.019ZM400.507 16.4581V62.1543H401.899V16.4581H400.507ZM401.203 62.8506H419.019V61.458H401.203V62.8506ZM419.715 62.1543V51.0023H418.323V62.1543H419.715ZM419.019 51.6986H434.931V50.3059H419.019V51.6986ZM434.38 51.4275L442.982 62.5796L444.085 61.729L435.483 50.577L434.38 51.4275ZM443.533 62.8506H462.505V61.458H443.533V62.8506ZM463.055 61.727L453.093 48.909L451.993 49.7635L461.955 62.5816L463.055 61.727ZM452.837 49.9674C455.949 48.5179 458.462 46.3225 460.334 43.4615L459.169 42.699C457.437 45.3459 455.122 47.3666 452.249 48.7051L452.837 49.9674ZM460.333 43.4632C462.246 40.5575 463.202 37.2955 463.202 33.7302H461.809C461.809 37.0329 460.928 40.0269 459.17 42.6973L460.333 43.4632ZM463.202 33.7402C463.343 23.8926 455.031 15.6557 445.226 15.7619L445.241 17.1544C454.272 17.0566 461.939 24.6637 461.809 33.7202L463.202 33.7402ZM445.233 15.7618H401.203V17.1545H445.233V15.7618ZM440.745 30.5165C442.537 30.5165 443.959 31.9388 443.959 33.7302H445.352C445.352 31.1696 443.306 29.1239 440.745 29.1239V30.5165ZM443.959 33.7302C443.959 34.5974 443.66 35.3389 443.007 35.9918L443.992 36.9766C444.903 36.0655 445.352 34.971 445.352 33.7302H443.959ZM443.007 35.9918C442.394 36.6051 441.654 36.9099 440.745 36.9099V38.3025C442.012 38.3025 443.109 37.8593 443.992 36.9766L443.007 35.9918ZM440.745 36.9099H419.019V38.3025H440.745V36.9099ZM419.715 37.6062V29.8202H418.323V37.6062H419.715ZM419.019 30.5165H440.745V29.1239H419.019V30.5165ZM511.498 31.4862L510.892 31.8292L511.092 32.1825H511.498V31.4862ZM530.164 31.4862V32.1825H530.948L530.856 31.4039L530.164 31.4862ZM499.156 15.3021L499.16 14.6058H499.156V15.3021ZM468.148 31.4862L468.844 31.4883V31.4862H468.148ZM498.782 44.4402L498.747 45.1357L498.749 45.1358L498.782 44.4402ZM486.814 47.0922L487.417 46.7443L487.216 46.3959H486.814V47.0922ZM468.148 47.0922V46.3959H467.363L467.457 47.1751L468.148 47.0922ZM499.156 63.2423L499.155 63.9386H499.156V63.2423ZM530.164 47.0922L529.468 47.0902V47.0922H530.164ZM499.53 34.1042L499.565 33.4088L499.563 33.4087L499.53 34.1042ZM487.51 31.4862C487.51 30.8294 487.804 30.2816 488.402 29.796C489.02 29.2943 489.938 28.8838 491.092 28.5663C493.393 27.9327 496.404 27.7285 499.156 27.7285V26.3358C496.366 26.3358 493.206 26.5397 490.722 27.2236C489.482 27.5649 488.355 28.0404 487.524 28.715C486.674 29.4055 486.118 30.3239 486.118 31.4862H487.51ZM499.156 27.7285C501.92 27.7285 504.413 27.9407 506.446 28.5726C508.468 29.2008 509.985 30.2266 510.892 31.8292L512.104 31.1432C510.971 29.1418 509.105 27.9406 506.86 27.2427C504.626 26.5486 501.968 26.3358 499.156 26.3358V27.7285ZM511.498 32.1825H530.164V30.7899H511.498V32.1825ZM530.856 31.4039C530.418 27.7257 529.227 24.8084 527.399 22.5135C525.572 20.2209 523.143 18.5904 520.29 17.4322C514.614 15.128 507.163 14.6568 499.16 14.6058L499.152 15.9984C507.163 16.0495 514.366 16.5303 519.766 18.7226C522.451 19.8126 524.664 21.3165 526.309 23.3812C527.952 25.4437 529.061 28.1066 529.473 31.5685L530.856 31.4039ZM499.156 14.6058C491.109 14.6058 483.243 15.3866 477.364 17.8562C474.417 19.0945 471.934 20.772 470.186 23.0224C468.431 25.2825 467.452 28.079 467.452 31.4862H468.844C468.844 28.3654 469.735 25.8748 471.286 23.8765C472.845 21.8683 475.105 20.3158 477.904 19.1401C483.517 16.7817 491.155 15.9985 499.156 15.9985V14.6058ZM467.452 31.4841C467.442 34.5506 468.649 36.932 470.659 38.7548C472.646 40.5562 475.397 41.7959 478.48 42.6746C484.641 44.4305 492.394 44.8138 498.747 45.1357L498.817 43.7448C492.42 43.4207 484.839 43.0389 478.862 41.3353C475.876 40.4843 473.357 39.3206 471.595 37.7231C469.857 36.1469 468.836 34.1338 468.844 31.4883L467.452 31.4841ZM498.749 45.1358C502.35 45.3064 505.484 45.4668 507.719 45.8288C508.842 46.0108 509.674 46.2347 510.208 46.5021C510.751 46.7735 510.802 46.9857 510.802 47.0922H512.194C512.194 46.1958 511.553 45.6175 510.832 45.2567C510.103 44.8919 509.101 44.6419 507.942 44.4541C505.612 44.0767 502.388 43.914 498.815 43.7447L498.749 45.1358ZM510.802 47.0922C510.802 47.717 510.514 48.2527 509.912 48.7377C509.292 49.2369 508.371 49.651 507.217 49.9748C504.915 50.621 501.903 50.8499 499.156 50.8499V52.2426C501.951 52.2426 505.11 52.0125 507.593 51.3157C508.832 50.968 509.957 50.4896 510.786 49.8222C511.632 49.1405 512.194 48.2355 512.194 47.0922H510.802ZM499.156 50.8499C496.396 50.8499 493.902 50.6213 491.868 49.9811C489.844 49.3439 488.324 48.3163 487.417 46.7443L486.211 47.4402C487.344 49.4042 489.207 50.6036 491.45 51.3095C493.683 52.0122 496.34 52.2426 499.156 52.2426V50.8499ZM486.814 46.3959H468.148V47.7886H486.814V46.3959ZM467.457 47.1751C467.895 50.8285 469.086 53.7349 470.914 56.0265C472.74 58.3156 475.168 59.9513 478.021 61.116C483.697 63.4335 491.148 63.9216 499.155 63.9386L499.158 62.546C491.15 62.529 483.947 62.0311 478.547 59.8266C475.862 58.7303 473.648 57.221 472.003 55.1581C470.359 53.0976 469.251 50.445 468.839 47.0093L467.457 47.1751ZM499.156 63.9386C507.202 63.9386 515.069 63.1664 520.947 60.7056C523.894 59.4717 526.378 57.7985 528.126 55.5512C529.881 53.294 530.86 50.4995 530.86 47.0922H529.468C529.468 50.213 528.578 52.7013 527.026 54.6963C525.467 56.7011 523.208 58.2494 520.409 59.421C514.795 61.7712 507.158 62.546 499.156 62.546V63.9386ZM530.86 47.0943C530.87 44.0201 529.663 41.6325 527.653 39.8047C525.667 37.9982 522.916 36.7552 519.832 35.8742C513.671 34.1139 505.918 33.7306 499.565 33.4088L499.495 34.7996C505.892 35.1238 513.473 35.5055 519.45 37.2132C522.435 38.0663 524.955 39.233 526.716 40.835C528.455 42.4157 529.476 44.4354 529.468 47.0902L530.86 47.0943ZM499.563 33.4087C495.96 33.2379 492.826 33.0861 490.591 32.7322C489.467 32.5543 488.635 32.3344 488.101 32.0698C487.56 31.8015 487.51 31.5913 487.51 31.4862H486.118C486.118 32.3841 486.761 32.9602 487.483 33.3177C488.212 33.6789 489.214 33.9243 490.373 34.1077C492.702 34.4763 495.926 34.6305 499.497 34.7997L499.563 33.4087ZM536.317 62.1883H535.62V62.8846H536.317V62.1883ZM589.799 62.1883V62.8846H590.495V62.1883H589.799ZM589.799 50.4583H590.495V49.7619H589.799V50.4583ZM554.133 50.4583H553.437V51.1546H554.133V50.4583ZM554.133 44.6102V43.9139H553.437V44.6102H554.133ZM589.799 44.6102V45.3066H590.495V44.6102H589.799ZM589.799 34.0362H590.495V33.3399H589.799V34.0362ZM554.133 34.0362H553.437V34.7325H554.133V34.0362ZM554.133 28.1882V27.4919H553.437V28.1882H554.133ZM589.799 28.1882V28.8845H590.495V28.1882H589.799ZM589.799 16.4921H590.495V15.7958H589.799V16.4921ZM536.317 16.4921V15.7958H535.62V16.4921H536.317ZM536.317 62.8846H589.799V61.492H536.317V62.8846ZM590.495 62.1883V50.4583H589.103V62.1883H590.495ZM589.799 49.7619H554.133V51.1546H589.799V49.7619ZM554.829 50.4583V44.6102H553.437V50.4583H554.829ZM554.133 45.3066H589.799V43.9139H554.133V45.3066ZM590.495 44.6102V34.0362H589.103V44.6102H590.495ZM589.799 33.3399H554.133V34.7325H589.799V33.3399ZM554.829 34.0362V28.1882H553.437V34.0362H554.829ZM554.133 28.8845H589.799V27.4919H554.133V28.8845ZM590.495 28.1882V16.4921H589.103V28.1882H590.495ZM589.799 15.7958H536.317V17.1885H589.799V15.7958ZM535.62 16.4921V62.1883H537.013V16.4921H535.62ZM599.429 12.0041V11.3078H598.733V12.0041H599.429ZM599.429 42.0942H598.733V42.7905H599.429V42.0942ZM617.245 42.0942V42.7905H617.942V42.0942H617.245ZM617.245 12.0041H617.942V11.3078H617.245V12.0041ZM599.429 48.7922V48.0959H598.733V48.7922H599.429ZM599.429 62.1543H598.733V62.8506H599.429V62.1543ZM617.245 62.1543V62.8506H617.942V62.1543H617.245ZM617.245 48.7922H617.942V48.0959H617.245V48.7922ZM598.733 12.0041V42.0942H600.126V12.0041H598.733ZM599.429 42.7905H617.245V41.3979H599.429V42.7905ZM617.942 42.0942V12.0041H616.549V42.0942H617.942ZM617.245 11.3078H599.429V12.7004H617.245V11.3078ZM598.733 48.7922V62.1543H600.126V48.7922H598.733ZM599.429 62.8506H617.245V61.458H599.429V62.8506ZM617.942 62.1543V48.7922H616.549V62.1543H617.942ZM617.245 48.0959H599.429V49.4886H617.245V48.0959Z" fill="white"/>
</g>
<defs>
<filter id="filter0_f_2_286" x="0.540238" y="8.52229" width="620.187" height="58.2015" filterUnits="userSpaceOnUse" color-interpolation-filters="sRGB">
<feFlood flood-opacity="0" result="BackgroundImageFix"/>
<feBlend mode="normal" in="SourceGraphic" in2="BackgroundImageFix" result="shape"/>
<feGaussianBlur stdDeviation="1.74081" result="effect1_foregroundBlur_2_286"/>
</filter>
<filter id="filter1_f_2_286" x="3.58665" y="11.5687" width="614.094" height="52.1087" filterUnits="userSpaceOnUse" color-interpolation-filters="sRGB">
<feFlood flood-opacity="0" result="BackgroundImageFix"/>
<feBlend mode="normal" in="SourceGraphic" in2="BackgroundImageFix" result="shape"/>
<feGaussianBlur stdDeviation="0.217601" result="effect1_foregroundBlur_2_286"/>
</filter>
<linearGradient id="paint0_linear_2_286" x1="3.3418" y1="84.5834" x2="619" y2="84.5834" gradientUnits="userSpaceOnUse">
<stop stop-color="#9290FF"/>
<stop offset="0.4875" stop-color="#F054A5"/>
<stop offset="1" stop-color="#26D8FF"/>
</linearGradient>
<linearGradient id="paint1_linear_2_286" x1="3.3418" y1="84.5834" x2="619" y2="84.5834" gradientUnits="userSpaceOnUse">
<stop stop-color="#9290FF"/>
<stop offset="0.4875" stop-color="#F054A5"/>
<stop offset="1" stop-color="#26D8FF"/>
</linearGradient>
</defs>
</svg>
