<svg width="73" height="41" viewBox="0 0 73 41" fill="none" xmlns="http://www.w3.org/2000/svg">
<path d="M41.4163 20.4346C41.4163 31.719 32.2695 40.8691 20.9809 40.8691C18.3015 40.8727 15.6476 40.347 13.1707 39.322C10.6938 38.297 8.44255 36.7928 6.54537 34.8953C4.64818 32.9977 3.14226 30.7441 2.11358 28.2629C1.0849 25.7817 0.553614 23.1217 0.550049 20.4346C0.550049 9.14562 9.69686 2.47207e-05 20.9809 2.47207e-05C23.6608 -0.0041526 26.3152 0.521122 28.7926 1.54585C31.2699 2.57058 33.5218 4.07468 35.4194 5.97227C37.3171 7.86985 38.8234 10.1237 39.8524 12.6052C40.8813 15.0867 41.4128 17.7471 41.4163 20.4346ZM63.8306 20.4346C63.8306 31.0605 59.2571 39.6703 53.6151 39.6703C47.9731 39.6703 43.3997 31.056 43.3997 20.4346C43.3997 9.80861 47.9731 1.19885 53.6151 1.19885C59.2571 1.19885 63.8306 9.81315 63.8306 20.4346ZM73 20.4346C73 29.9525 71.3925 37.6677 69.4047 37.6677C67.4214 37.6677 65.8139 29.948 65.8139 20.4346C65.8139 10.9166 67.4214 3.20144 69.4092 3.20144C71.3925 3.20144 73 10.9166 73 20.4346Z" fill="white"/>
</svg>
