<svg width="60" height="41" viewBox="0 0 60 41" fill="none" xmlns="http://www.w3.org/2000/svg">
<path d="M57.7837 6.38418C57.4488 5.14794 56.7923 4.02056 55.8797 3.11488C54.9672 2.20919 53.8306 1.55697 52.5838 1.22347C47.9946 2.48254e-07 29.598 0 29.598 0C29.598 0 11.2015 -2.48254e-07 6.6122 1.21696C5.36489 1.54938 4.22777 2.20124 3.31504 3.10709C2.40231 4.01295 1.7461 5.1409 1.41232 6.37767C0.18457 10.9331 0.18457 20.4346 0.18457 20.4346C0.18457 20.4346 0.18457 29.936 1.41232 34.485C2.08857 36.997 4.08448 38.9754 6.6122 39.6457C11.2015 40.8691 29.598 40.8691 29.598 40.8691C29.598 40.8691 47.9946 40.8691 52.5838 39.6457C55.1181 38.9754 57.1075 36.997 57.7837 34.485C59.0115 29.936 59.0115 20.4346 59.0115 20.4346C59.0115 20.4346 59.0115 10.9331 57.7837 6.38418ZM23.7547 29.1551V11.7141L38.9867 20.3695L23.7547 29.1551Z" fill="white"/>
</svg>
