<svg width="316" height="288" viewBox="0 0 316 288" fill="none" xmlns="http://www.w3.org/2000/svg">
<path d="M310.033 3.95916C304.643 -0.620055 296.176 -1.27526 287.422 2.24555H287.408C278.201 5.94636 26.7991 113.975 16.5647 118.389C14.7033 119.037 -1.55377 125.114 0.120806 138.65C1.61571 150.854 14.6817 155.908 16.2773 156.492L80.1915 178.416C84.4319 192.557 100.064 244.728 103.521 255.874C105.677 262.822 109.191 271.951 115.35 273.83C120.755 275.918 126.131 274.01 129.61 271.274L168.685 234.965L231.766 284.249L233.268 285.149C237.552 287.05 241.655 288 245.572 288C248.598 288 251.502 287.431 254.276 286.294C263.727 282.406 267.507 273.384 267.902 272.362L315.021 27.0064C317.895 13.9024 313.899 7.23517 310.033 3.95916ZM136.559 187.185L114.998 244.785L93.4372 172.785L258.739 50.3849L136.559 187.185Z" fill="white"/>
</svg>
